<svg width="815" height="815" viewBox="0 0 815 815" fill="none" xmlns="http://www.w3.org/2000/svg">
<g opacity="0.5">
<path fill-rule="evenodd" clip-rule="evenodd" d="M256.143 322.217C208.834 405.605 238.082 511.555 321.47 558.864C404.857 606.173 510.808 576.925 558.117 493.537C605.426 410.149 576.178 304.199 492.79 256.89C409.402 209.581 303.452 238.829 256.143 322.217ZM253.153 320.521C204.907 405.56 234.734 513.608 319.773 561.854C404.812 610.1 512.861 580.273 561.107 495.234C609.352 410.194 579.525 302.146 494.486 253.9C409.447 205.654 301.399 235.481 253.153 320.521Z" fill="url(#paint0_linear_16_3)"/>
<path fill-rule="evenodd" clip-rule="evenodd" d="M141.781 257.336C58.639 403.884 110.04 590.084 256.588 673.226C403.136 756.368 589.337 704.967 672.478 558.419C755.62 411.871 704.219 225.67 557.671 142.529C411.123 59.387 224.923 110.788 141.781 257.336ZM140.286 256.488C56.676 403.861 108.366 591.111 255.74 674.721C403.114 758.331 590.363 706.641 673.973 559.267C757.584 411.893 705.893 224.644 558.519 141.034C411.146 57.423 223.896 109.114 140.286 256.488Z" fill="url(#paint1_linear_16_3)"/>
<path fill-rule="evenodd" clip-rule="evenodd" d="M55.288 207.771C-55.1387 402.411 13.13 649.717 207.771 760.143C402.411 870.57 649.717 802.301 760.143 607.66C870.57 413.02 802.301 165.714 607.66 55.288C413.02 -55.1388 165.714 13.13 55.288 207.771ZM53.793 206.923C-57.102 402.389 11.457 650.743 206.923 761.638C402.389 872.53 650.744 803.974 761.638 608.508C872.53 413.042 803.974 164.687 608.508 53.793C413.042 -57.1021 164.688 11.457 53.793 206.923Z" fill="url(#paint2_linear_16_3)"/>
</g>
<defs>
<linearGradient id="paint0_linear_16_3" x1="561.107" y1="495.234" x2="378.663" y2="391.727" gradientUnits="userSpaceOnUse">
<stop stop-color="#31C573"/>
<stop offset="1" stop-color="#31C573" stop-opacity="0"/>
</linearGradient>
<linearGradient id="paint1_linear_16_3" x1="673.973" y1="559.267" x2="357.797" y2="379.889" gradientUnits="userSpaceOnUse">
<stop stop-color="#31C573"/>
<stop offset="1" stop-color="#31C573" stop-opacity="0"/>
</linearGradient>
<linearGradient id="paint2_linear_16_3" x1="809.5" y1="521.5" x2="342.284" y2="370.594" gradientUnits="userSpaceOnUse">
<stop stop-color="#31C573"/>
<stop offset="0.453823" stop-color="#31C573" stop-opacity="0"/>
</linearGradient>
</defs>
</svg>
