<svg width="1685" height="451" viewBox="0 0 1685 451" fill="none" xmlns="http://www.w3.org/2000/svg">
<path d="M532.248 185.977L581.928 448.227H516.098L510.658 423.126L448.868 422.247L442.548 448.227H378.828L430.958 185.977H532.238H532.248ZM482.918 260.227L461.498 362.917H499.938L482.908 260.227H482.918Z" fill="url(#paint0_linear_3_251)"/>
<path d="M738.328 369.057C769.578 420.787 785.198 447.167 785.198 448.227H708.838C707.668 447.877 691.928 422.307 661.618 371.517H654.948V448.227H589.468V185.977H710.768C760.268 186.677 785.368 211.777 786.078 261.287V287.447C785.028 333.437 769.108 360.646 738.328 369.066V369.057ZM654.948 252.497V309.547H701.638C716.148 309.427 723.408 300.247 723.408 281.987C723.408 281.867 723.378 277.156 723.318 267.856C723.258 258.556 716.038 253.437 701.638 252.497H654.948Z" fill="url(#paint1_linear_3_251)"/>
<path d="M409.9 252.326V186.846H248.23V283.416L313.71 283.476V252.326H409.9Z" fill="url(#paint2_linear_3_251)"/>
<path d="M248.23 449.106H313.71V345.916L248.23 346.076V449.106Z" fill="url(#paint3_linear_3_251)"/>
<path d="M227.29 343.966V446.956H153.79V343.966H2.15991V285.556L130.19 126.576H227.29V285.556L248.23 285.576V283.416L229.44 283.406V126.576V124.416H227.29H130.19H129.16L128.51 125.226L0.47998 284.206L0 284.796V285.556V343.966V346.126H2.15991H151.63V446.956V449.106H153.79H227.29H229.44V446.956V346.116L248.23 346.076V343.916L227.29 343.966Z" fill="#39B54A"/>
<path d="M77.2 284.396V286.326H154.56V204.706L165.39 173.376L149.9 203.026L77.2 284.396ZM151.69 204.266L151.81 204.026L153.89 200.046L152.52 204.006L152.4 204.346V284.166H80.29L151.51 204.456L151.69 204.256V204.266Z" fill="#39B54A"/>
<path d="M358.45 285.676H358.64L369.98 343.626L313.71 343.766V345.916L369.99 345.786L372.6 345.776L372.1 343.216L360.76 285.266L360.42 283.526L358.65 283.516L313.71 283.476V285.636L358.45 285.676Z" fill="#39B54A"/>
<path d="M248.23 343.916V346.076L313.71 345.916V343.766L248.23 343.916Z" fill="#39B54A"/>
<path d="M313.71 283.446H248.23V285.606H313.71V283.446Z" fill="#39B54A"/>
<path d="M1064.33 286.497V186.017H977.261L928.291 318.896L878.431 186.017H793.121V448.267H858.601V313.637L900.901 426.677H960.231L997.971 313.637V448.267H1041.45V286.497H1064.33Z" fill="url(#paint4_linear_3_251)"/>
<path d="M1178.21 372.777C1178.21 414.627 1150.17 448.277 1104.87 448.277H1052.24V297.287H1104.87C1150.17 297.287 1178.21 330.937 1178.21 372.787V372.777ZM1104.87 306.336H1061.94V439.207H1104.87C1144.77 439.207 1168.5 409.227 1168.5 372.767C1168.5 336.307 1144.77 306.327 1104.87 306.327V306.336Z" fill="#39B54A"/>
<path d="M1283.9 295.126C1329.2 295.126 1357.24 328.777 1357.24 372.777C1357.24 416.777 1329.2 450.427 1283.9 450.427C1238.6 450.427 1210.56 416.777 1210.56 372.777C1210.56 328.777 1238.6 295.126 1283.9 295.126ZM1283.9 304.187C1244 304.187 1220.27 334.167 1220.27 372.777C1220.27 411.387 1244 441.367 1283.9 441.367C1323.8 441.367 1347.53 411.387 1347.53 372.777C1347.53 334.167 1323.8 304.187 1283.9 304.187Z" fill="#39B54A"/>
<path d="M1462.93 295.126C1520.74 295.126 1533.47 345.817 1533.47 355.527H1523.76C1523.76 349.267 1514.92 304.187 1462.93 304.187C1423.03 304.187 1399.3 334.167 1399.3 372.777C1399.3 411.387 1423.03 441.367 1462.93 441.367C1514.91 441.367 1523.76 396.287 1523.76 390.027H1533.47C1533.47 399.737 1520.74 450.427 1462.93 450.427C1417.63 450.427 1389.59 416.777 1389.59 372.777C1389.59 328.777 1417.63 295.126 1462.93 295.126Z" fill="#39B54A"/>
<path d="M1668.7 338.697C1668.7 314.327 1648.42 304.187 1623.4 304.187C1598.38 304.187 1578.1 315.187 1578.1 335.677C1578.1 385.717 1684.44 350.347 1684.44 407.937C1684.44 435.117 1658.12 450.427 1624.48 450.427C1590.84 450.427 1564.73 434.897 1564.73 404.267V395.637H1574.44V404.267C1574.44 429.507 1596.66 441.367 1624.48 441.367C1652.3 441.367 1674.74 429.507 1674.74 407.937C1674.74 359.617 1568.4 396.507 1568.4 335.677C1568.4 309.577 1592.77 295.126 1623.4 295.126C1654.03 295.126 1678.4 308.927 1678.4 338.697V343.007H1668.69V338.697H1668.7Z" fill="#39B54A"/>
<path d="M250.718 30.3362C251.618 22.6962 251.948 14.9765 251.718 7.1765C251.648 4.7565 251.508 2.41648 251.298 0.156477C251.278 -0.0435234 251.238 -0.0535429 251.168 0.136457C250.828 1.05646 250.408 1.9662 249.888 2.8762C245.718 10.2662 238.698 15.8463 230.848 18.9363C228.548 19.8763 226.708 20.5861 225.328 21.0661C216.528 24.1461 207.578 27.1665 199.158 30.9065C190.888 34.5965 182.948 39.1962 175.988 44.8962C173.278 47.1162 170.848 49.4565 168.698 51.9265C163.818 57.5365 160.548 63.9563 158.878 71.2063L158.338 74.2366C157.698 79.0366 157.858 83.8064 158.798 88.5364C159.238 90.7364 159.878 92.8264 160.718 94.8064C161.598 96.8764 162.998 98.5163 164.908 99.7263C166.318 100.566 167.828 101.146 169.428 101.456C169.458 101.456 169.488 101.436 169.488 101.396C169.288 96.4462 169.638 91.5265 170.538 86.6365C170.748 85.4865 171.038 84.3666 171.388 83.2766C172.988 78.3566 175.238 73.7962 178.128 69.5862C183.328 62.0162 190.258 55.6762 197.998 50.6462C199.538 49.6462 201.068 48.6766 202.598 47.7566C205.948 45.8866 208.688 44.4563 210.818 43.4563C215.168 41.4063 218.698 39.5962 222.228 37.3762C227.758 33.8962 233.078 30.1462 238.198 26.1462C238.208 26.1462 238.228 26.1462 238.238 26.1462C238.238 26.1462 238.248 26.1763 238.238 26.1863C233.488 30.9263 228.478 35.3766 223.198 39.5266C220.538 41.6266 217.728 43.5163 214.818 45.2663C210.758 47.7063 206.728 50.2066 202.718 52.7566C197.548 56.0166 193.098 59.7265 189.358 63.8865C187.088 66.4065 185.028 69.0263 183.158 71.7663C182.268 73.0763 181.318 74.3766 180.548 75.7366C177.418 81.3066 176.168 87.6263 176.008 93.9963C175.878 99.1363 176.318 104.326 177.308 109.566C177.318 109.626 177.348 109.667 177.388 109.697C178.828 110.737 180.428 111.466 182.208 111.876L183.808 112.156C186.478 112.426 189.148 112.346 191.798 111.926C192.638 111.797 193.418 111.596 194.138 111.346C200.138 109.206 205.778 106.437 211.048 103.047C211.098 103.017 211.108 102.966 211.088 102.916L205.628 92.2663C205.588 92.1763 205.608 92.1565 205.698 92.1965L218.538 97.4363C218.598 97.4663 218.658 97.4565 218.708 97.4065C223.968 92.9565 228.578 87.9066 232.528 82.2366C232.548 82.2066 232.538 82.1665 232.508 82.1565L220.298 75.9866C220.138 75.9066 220.148 75.8564 220.328 75.8464L225.908 75.4065L237.278 74.5066C237.278 74.5066 237.358 74.4763 237.378 74.4363C241.558 66.8863 244.718 58.7461 246.938 50.3161C246.948 50.2761 246.938 50.2566 246.888 50.2566L232.108 50.2165C231.968 50.2165 231.968 50.1865 232.088 50.1365L248.618 42.9265C248.668 42.9065 248.698 42.8661 248.708 42.8161L249.038 41.2966L249.878 36.5466C250.228 34.1266 250.498 32.0564 250.698 30.3264L250.718 30.3362Z" fill="url(#paint5_linear_3_251)"/>
<defs>
<linearGradient id="paint0_linear_3_251" x1="387.458" y1="346.407" x2="628.588" y2="287.017" gradientUnits="userSpaceOnUse">
<stop stop-color="#00A651"/>
<stop offset="0.12" stop-color="#00A051"/>
<stop offset="0.44" stop-color="#019851"/>
<stop offset="1" stop-color="#029652"/>
</linearGradient>
<linearGradient id="paint1_linear_3_251" x1="576.128" y1="331.027" x2="788.088" y2="304.477" gradientUnits="userSpaceOnUse">
<stop stop-color="#00A651"/>
<stop offset="0.12" stop-color="#009E51"/>
<stop offset="0.37" stop-color="#019751"/>
<stop offset="1" stop-color="#029652"/>
</linearGradient>
<linearGradient id="paint2_linear_3_251" x1="220.06" y1="251.776" x2="411.83" y2="199.466" gradientUnits="userSpaceOnUse">
<stop stop-color="#39B54A"/>
<stop offset="0.08" stop-color="#28AB4C"/>
<stop offset="0.19" stop-color="#17A24E"/>
<stop offset="0.33" stop-color="#0B9B50"/>
<stop offset="0.53" stop-color="#039751"/>
<stop offset="1" stop-color="#029652"/>
</linearGradient>
<linearGradient id="paint3_linear_3_251" x1="180.42" y1="421.446" x2="318.36" y2="388.716" gradientUnits="userSpaceOnUse">
<stop stop-color="#39B54A"/>
<stop offset="0.13" stop-color="#2DAE4B"/>
<stop offset="0.45" stop-color="#15A04F"/>
<stop offset="0.75" stop-color="#069851"/>
<stop offset="1" stop-color="#029652"/>
</linearGradient>
<linearGradient id="paint4_linear_3_251" x1="740.951" y1="353.797" x2="1093.7" y2="280.477" gradientUnits="userSpaceOnUse">
<stop stop-color="#00A651"/>
<stop offset="0.12" stop-color="#009E51"/>
<stop offset="0.37" stop-color="#019751"/>
<stop offset="1" stop-color="#029652"/>
</linearGradient>
<linearGradient id="paint5_linear_3_251" x1="145.618" y1="77.0465" x2="264.628" y2="44.0966" gradientUnits="userSpaceOnUse">
<stop stop-color="#029652"/>
<stop offset="0.63" stop-color="#27AB4C"/>
<stop offset="1" stop-color="#39B54A"/>
</linearGradient>
</defs>
</svg>
