<svg width="1594" height="427" viewBox="0 0 1594 427" fill="none" xmlns="http://www.w3.org/2000/svg">
<path d="M503.55 175.934L550.55 424.044H488.271L483.12 400.294L424.66 399.464L418.68 424.044H358.4L407.72 175.934H503.541H503.55ZM456.88 246.184L436.62 343.334H472.99L456.88 246.184Z" fill="white"/>
<path d="M698.521 349.154C728.081 398.094 742.86 423.054 742.86 424.054H670.62C669.51 423.724 654.62 399.534 625.95 351.484H619.64V424.054H557.69V175.944H672.45C719.28 176.604 743.03 200.354 743.7 247.194V271.934C742.7 315.444 727.65 341.184 698.53 349.154H698.521ZM619.64 238.884V292.854H663.82C677.55 292.744 684.41 284.054 684.41 266.784C684.41 266.674 684.381 262.214 684.331 253.414C684.271 244.614 677.44 239.774 663.82 238.884H619.64Z" fill="white"/>
<path d="M387.8 238.714V176.764H234.85V268.134L296.79 268.184V238.714H387.8Z" fill="white"/>
<path d="M234.85 424.884H296.79V327.254L234.85 327.404V424.884Z" fill="white"/>
<path d="M215.03 325.414V422.844H145.5V325.414H2.04004V270.154L123.17 119.744H215.03V270.154L234.85 270.174V268.134L217.07 268.114V119.744V117.704H215.03H123.17H122.2L121.59 118.464L0.450195 268.875L0 269.434V270.154V325.414V327.454H2.04004H143.46V422.844V424.884H145.5H215.03H217.07V422.844V327.444L234.85 327.404V325.364L215.03 325.414Z" fill="white"/>
<path d="M73.04 269.054V270.884H146.23V193.664L156.48 164.024L141.82 192.074L73.04 269.054ZM143.51 193.244L143.63 193.014L145.6 189.254L144.31 193.004L144.2 193.324V268.844H75.97L143.35 193.434L143.52 193.244H143.51Z" fill="white"/>
<path d="M339.13 270.264H339.31L350.04 325.094L296.79 325.214V327.254L350.04 327.134L352.51 327.125L352.04 324.704L341.31 269.875L340.99 268.224H339.31L296.79 268.184V270.224L339.13 270.264Z" fill="white"/>
<path d="M234.85 325.364V327.404L296.79 327.254V325.214L234.85 325.364Z" fill="white"/>
<path d="M296.8 268.154H234.85V270.194H296.8V268.154Z" fill="white"/>
<path d="M1006.94 271.035V175.975H924.569L878.239 301.695L831.069 175.975H750.359V424.095H812.299V296.715L852.33 403.665H908.459L944.169 296.715V424.095H985.299V271.035H1006.94Z" fill="white"/>
<path d="M1114.68 352.665C1114.68 392.255 1088.15 424.095 1045.3 424.095H995.509V281.245H1045.3C1088.16 281.245 1114.68 313.085 1114.68 352.675V352.665ZM1045.3 289.815H1004.69V415.525H1045.3C1083.05 415.525 1105.5 387.155 1105.5 352.675C1105.5 318.195 1083.05 289.825 1045.3 289.825V289.815Z" fill="white"/>
<path d="M1214.67 279.205C1257.53 279.205 1284.05 311.045 1284.05 352.675C1284.05 394.305 1257.52 426.145 1214.67 426.145C1171.82 426.145 1145.29 394.315 1145.29 352.675C1145.29 311.035 1171.82 279.205 1214.67 279.205ZM1214.67 287.775C1176.92 287.775 1154.47 316.145 1154.47 352.665C1154.47 389.185 1176.92 417.565 1214.67 417.565C1252.42 417.565 1274.87 389.195 1274.87 352.665C1274.87 316.135 1252.42 287.775 1214.67 287.775Z" fill="white"/>
<path d="M1384.05 279.205C1438.74 279.205 1450.78 327.165 1450.78 336.345H1441.6C1441.6 330.425 1433.23 287.775 1384.05 287.775C1346.3 287.775 1323.85 316.145 1323.85 352.665C1323.85 389.185 1346.3 417.565 1384.05 417.565C1433.23 417.565 1441.6 374.915 1441.6 368.995H1450.78C1450.78 378.175 1438.74 426.135 1384.05 426.135C1341.2 426.135 1314.67 394.305 1314.67 352.665C1314.67 311.025 1341.2 279.195 1384.05 279.195V279.205Z" fill="white"/>
<path d="M1578.73 320.425C1578.73 297.365 1559.55 287.775 1535.87 287.775C1512.19 287.775 1493.02 298.185 1493.02 317.565C1493.02 364.905 1593.63 331.445 1593.63 385.925C1593.63 411.635 1568.73 426.125 1536.9 426.125C1505.07 426.125 1480.37 411.435 1480.37 382.455V374.295H1489.55V382.455C1489.55 406.335 1510.57 417.555 1536.9 417.555C1563.23 417.555 1584.45 406.335 1584.45 385.925C1584.45 340.215 1483.84 375.105 1483.84 317.565C1483.84 292.875 1506.9 279.195 1535.88 279.195C1564.86 279.195 1587.92 292.255 1587.92 320.415V324.495H1578.74V320.415L1578.73 320.425Z" fill="white"/>
<path d="M237.2 28.6949C238.05 21.4749 238.36 14.1648 238.14 6.78476C238.07 4.49476 237.94 2.28511 237.74 0.145114C237.72 -0.0448856 237.68 -0.0449051 237.62 0.125095C237.3 0.995095 236.9 1.8547 236.41 2.7247C232.47 9.7147 225.82 14.9946 218.39 17.9146C216.22 18.8046 214.48 19.4747 213.17 19.9347C204.85 22.8447 196.38 25.7047 188.41 29.2447C180.58 32.7347 173.08 37.0847 166.49 42.4747C163.93 44.5747 161.63 46.7851 159.6 49.1251C154.99 54.4251 151.89 60.5148 150.31 67.3648L149.8 70.235C149.2 74.775 149.34 79.2847 150.23 83.7647C150.64 85.8447 151.25 87.8149 152.05 89.6949C152.89 91.6549 154.21 93.2048 156.02 94.3448C157.35 95.1448 158.78 95.695 160.3 95.985C160.33 95.985 160.36 95.9647 160.36 95.9347C160.17 91.2447 160.5 86.5949 161.36 81.9649C161.56 80.8749 161.83 79.8148 162.17 78.7848C163.69 74.1348 165.81 69.8151 168.54 65.8351C173.46 58.6651 180.01 52.6746 187.34 47.9146C188.8 46.9646 190.25 46.0549 191.69 45.1749C194.86 43.4049 197.45 42.0451 199.46 41.1051C203.58 39.1651 206.91 37.4548 210.25 35.3448C215.48 32.0448 220.52 28.5049 225.36 24.7149C225.37 24.7149 225.38 24.7149 225.39 24.7149C225.39 24.7149 225.4 24.735 225.39 24.755C220.89 29.235 216.15 33.4449 211.17 37.3849C208.65 39.3749 205.99 41.165 203.24 42.815C199.4 45.125 195.59 47.4849 191.8 49.9049C186.91 52.9949 182.7 56.4947 179.16 60.4347C177.02 62.8147 175.06 65.3051 173.29 67.8951C172.44 69.1351 171.55 70.3649 170.82 71.6549C167.86 76.9249 166.67 82.9047 166.52 88.9347C166.4 93.7947 166.81 98.7046 167.75 103.665C167.76 103.715 167.79 103.755 167.83 103.795C169.19 104.785 170.71 105.465 172.39 105.855L173.91 106.125C176.44 106.375 178.96 106.305 181.47 105.905C182.27 105.785 183 105.595 183.68 105.355C189.36 103.325 194.7 100.715 199.68 97.505C199.73 97.475 199.74 97.4349 199.71 97.3849L194.54 87.3048C194.5 87.2248 194.52 87.205 194.6 87.235L206.74 92.1949C206.8 92.2249 206.85 92.2146 206.9 92.1646C211.88 87.9546 216.24 83.175 219.97 77.815C219.99 77.785 219.97 77.755 219.95 77.735L208.4 71.8951C208.25 71.8151 208.26 71.775 208.43 71.755L213.71 71.3448L224.46 70.4947C224.46 70.4947 224.54 70.4647 224.56 70.4347C228.51 63.2947 231.5 55.5848 233.61 47.6148C233.62 47.5748 233.61 47.5548 233.57 47.5548L219.59 47.5147C219.46 47.5147 219.46 47.4847 219.57 47.4347L235.21 40.6148C235.21 40.6148 235.29 40.555 235.3 40.505L235.61 39.065L236.41 34.5748C236.74 32.2848 237 30.3249 237.19 28.6949H237.2Z" fill="white"/>
</svg>
