<svg width="95" height="113" viewBox="0 0 95 113" fill="none" xmlns="http://www.w3.org/2000/svg">
<path d="M93.7183 30.3362C94.6183 22.6962 94.9483 14.9765 94.7183 7.1765C94.6483 4.7565 94.5084 2.41648 94.2984 0.156477C94.2784 -0.0435234 94.2383 -0.0535429 94.1683 0.136457C93.8283 1.05646 93.4082 1.9662 92.8882 2.8762C88.7182 10.2662 81.6984 15.8463 73.8484 18.9363C71.5484 19.8763 69.7084 20.5861 68.3284 21.0661C59.5284 24.1461 50.5783 27.1665 42.1583 30.9065C33.8883 34.5965 25.9483 39.1962 18.9883 44.8962C16.2783 47.1162 13.8483 49.4565 11.6983 51.9265C6.81829 57.5365 3.54822 63.9563 1.87822 71.2063L1.33843 74.2366C0.698429 79.0366 0.858389 83.8064 1.79839 88.5364C2.23839 90.7364 2.87831 92.8264 3.71831 94.8064C4.59831 96.8764 5.99825 98.5163 7.90825 99.7263C9.31825 100.566 10.8283 101.146 12.4283 101.456C12.4583 101.456 12.4883 101.436 12.4883 101.396C12.2883 96.4462 12.6384 91.5265 13.5384 86.6365C13.7484 85.4865 14.0382 84.3666 14.3882 83.2766C15.9882 78.3566 18.2382 73.7962 21.1282 69.5862C26.3282 62.0162 33.2583 55.6762 40.9983 50.6462C42.5383 49.6462 44.0684 48.6766 45.5984 47.7566C48.9484 45.8866 51.6884 44.4563 53.8184 43.4563C58.1684 41.4063 61.6983 39.5962 65.2283 37.3762C70.7583 33.8962 76.0783 30.1462 81.1983 26.1462C81.2083 26.1462 81.2283 26.1462 81.2383 26.1462C81.2383 26.1462 81.2483 26.1763 81.2383 26.1863C76.4883 30.9263 71.4783 35.3766 66.1983 39.5266C63.5383 41.6266 60.7284 43.5163 57.8184 45.2663C53.7584 47.7063 49.7283 50.2066 45.7183 52.7566C40.5483 56.0166 36.0984 59.7265 32.3584 63.8865C30.0884 66.4065 28.0283 69.0263 26.1583 71.7663C25.2683 73.0763 24.3184 74.3766 23.5484 75.7366C20.4184 81.3066 19.1684 87.6263 19.0084 93.9963C18.8784 99.1363 19.3184 104.326 20.3084 109.566C20.3184 109.626 20.3482 109.667 20.3882 109.697C21.8282 110.737 23.4283 111.466 25.2083 111.876L26.8084 112.156C29.4784 112.426 32.1484 112.346 34.7984 111.926C35.6384 111.796 36.4182 111.596 37.1382 111.346C43.1382 109.206 48.7784 106.437 54.0484 103.047C54.0984 103.017 54.1084 102.966 54.0884 102.916L48.6282 92.2663C48.5882 92.1763 48.6083 92.1565 48.6983 92.1965L61.5384 97.4363C61.5984 97.4663 61.6583 97.4565 61.7083 97.4065C66.9683 92.9565 71.5784 87.9066 75.5284 82.2366C75.5484 82.2066 75.5384 82.1665 75.5084 82.1565L63.2984 75.9866C63.1384 75.9066 63.1484 75.8564 63.3284 75.8464L68.9083 75.4065L80.2784 74.5066C80.2784 74.5066 80.3582 74.4763 80.3782 74.4363C84.5582 66.8863 87.7183 58.7461 89.9383 50.3161C89.9483 50.2761 89.9382 50.2566 89.8882 50.2566L75.1085 50.2165C74.9685 50.2165 74.9684 50.1865 75.0884 50.1365L91.6185 42.9265C91.6685 42.9065 91.6983 42.8661 91.7083 42.8161L92.0384 41.2966L92.8782 36.5466C93.2282 34.1266 93.4983 32.0564 93.6983 30.3264L93.7183 30.3362Z" fill="url(#paint0_linear_144_7)"/>
<defs>
<linearGradient id="paint0_linear_144_7" x1="-11.3816" y1="77.0465" x2="107.628" y2="44.0966" gradientUnits="userSpaceOnUse">
<stop stop-color="#029652"/>
<stop offset="0.63" stop-color="#27AB4C"/>
<stop offset="1" stop-color="#39B54A"/>
</linearGradient>
</defs>
</svg>
