<svg width="373" height="450" viewBox="0 0 373 450" fill="none" xmlns="http://www.w3.org/2000/svg">
<mask id="path-1-inside-1_144_8" fill="white">
<path d="M227.29 343.966V446.956H153.79V343.966H2.15991V285.556L130.19 126.576H227.29V285.556L248.23 285.576V283.416L229.44 283.406V126.576V124.416H227.29H130.19H129.16L128.51 125.226L0.47998 284.206L0 284.796V285.556V343.966V346.126H2.15991H151.63V446.956V449.106H153.79H227.29H229.44V446.956V346.116L248.23 346.076V343.916L227.29 343.966Z"/>
</mask>
<path d="M227.29 343.966V446.956H153.79V343.966H2.15991V285.556L130.19 126.576H227.29V285.556L248.23 285.576V283.416L229.44 283.406V126.576V124.416H227.29H130.19H129.16L128.51 125.226L0.47998 284.206L0 284.796V285.556V343.966V346.126H2.15991H151.63V446.956V449.106H153.79H227.29H229.44V446.956V346.116L248.23 346.076V343.916L227.29 343.966Z" fill="#2AAF65"/>
<path d="M227.29 343.966L224.888 -656.031L-772.71 -653.635L-772.71 343.966H227.29ZM227.29 446.956V1446.96H1227.29V446.956H227.29ZM153.79 446.956H-846.21V1446.96H153.79V446.956ZM153.79 343.966H1153.79V-656.034H153.79V343.966ZM2.15991 343.966H-997.84V1343.97H2.15991V343.966ZM2.15991 285.556L-776.683 -341.663L-997.84 -67.0433V285.556H2.15991ZM130.19 126.576V-873.424H-348.444L-648.653 -500.643L130.19 126.576ZM227.29 126.576H1227.29V-873.424H227.29V126.576ZM227.29 285.556H-772.71V1284.6L226.334 1285.56L227.29 285.556ZM248.23 285.576L247.274 1285.58L1248.23 1286.53V285.576H248.23ZM248.23 283.416H1248.23V-716.064L248.75 -716.584L248.23 283.416ZM229.44 283.406H-770.56V1282.89L228.92 1283.41L229.44 283.406ZM229.44 124.416H1229.44V-875.584H229.44V124.416ZM129.16 124.416V-875.584H-350.607L-650.837 -501.368L129.16 124.416ZM128.51 125.226L907.353 752.445L907.93 751.728L908.507 751.01L128.51 125.226ZM0.47998 284.206L776.378 915.064L777.855 913.248L779.323 911.425L0.47998 284.206ZM0 284.796L-775.898 -346.062L-1000 -70.437V284.796H0ZM0 346.126H-1000V1346.13H0V346.126ZM151.63 346.126H1151.63V-653.874H151.63V346.126ZM151.63 449.106H-848.37V1449.11H151.63V449.106ZM229.44 449.106V1449.11H1229.44V449.106H229.44ZM229.44 346.116L227.309 -653.882L-770.56 -651.755V346.116H229.44ZM248.23 346.076L250.361 1346.07L1248.23 1343.95V346.076H248.23ZM248.23 343.916H1248.23V-658.489L245.828 -656.081L248.23 343.916ZM-772.71 343.966V446.956H1227.29V343.966H-772.71ZM227.29 -553.044H153.79V1446.96H227.29V-553.044ZM1153.79 446.956V343.966H-846.21V446.956H1153.79ZM153.79 -656.034H2.15991V1343.97H153.79V-656.034ZM1002.16 343.966V285.556H-997.84V343.966H1002.16ZM781.003 912.775L909.033 753.795L-648.653 -500.643L-776.683 -341.663L781.003 912.775ZM130.19 1126.58H227.29V-873.424H130.19V1126.58ZM-772.71 126.576V285.556H1227.29V126.576H-772.71ZM226.334 1285.56L247.274 1285.58L249.186 -714.423L228.246 -714.443L226.334 1285.56ZM1248.23 285.576V283.416H-751.77V285.576H1248.23ZM248.75 -716.584L229.96 -716.594L228.92 1283.41L247.71 1283.42L248.75 -716.584ZM1229.44 283.406V126.576H-770.56V283.406H1229.44ZM1229.44 126.576V124.416H-770.56V126.576H1229.44ZM229.44 -875.584H227.29V1124.42H229.44V-875.584ZM227.29 -875.584H130.19V1124.42H227.29V-875.584ZM130.19 -875.584H129.16V1124.42H130.19V-875.584ZM-650.837 -501.368L-651.487 -500.558L908.507 751.01L909.156 750.2L-650.837 -501.368ZM-650.333 -501.993L-778.363 -343.013L779.323 911.425L907.353 752.445L-650.333 -501.993ZM-775.418 -346.652L-775.898 -346.062L775.898 915.655L776.378 915.064L-775.418 -346.652ZM-1000 284.796V285.556H1000V284.796H-1000ZM-1000 285.556V343.966H1000V285.556H-1000ZM-1000 343.966V346.126H1000V343.966H-1000ZM0 1346.13H2.15991V-653.874H0V1346.13ZM2.15991 1346.13H151.63V-653.874H2.15991V1346.13ZM-848.37 346.126V446.956H1151.63V346.126H-848.37ZM-848.37 446.956V449.106H1151.63V446.956H-848.37ZM151.63 1449.11H153.79V-550.894H151.63V1449.11ZM153.79 1449.11H227.29V-550.894H153.79V1449.11ZM227.29 1449.11H229.44V-550.894H227.29V1449.11ZM1229.44 449.106V446.956H-770.56V449.106H1229.44ZM1229.44 446.956V346.116H-770.56V446.956H1229.44ZM231.571 1346.11L250.361 1346.07L246.099 -653.922L227.309 -653.882L231.571 1346.11ZM1248.23 346.076V343.916H-751.77V346.076H1248.23ZM245.828 -656.081L224.888 -656.031L229.692 1343.96L250.632 1343.91L245.828 -656.081Z" fill="#2AAF65" mask="url(#path-1-inside-1_144_8)"/>
<mask id="path-3-inside-2_144_8" fill="white">
<path d="M77.2 284.396V286.326H154.56V204.706L165.39 173.376L149.9 203.026L77.2 284.396ZM151.69 204.266L151.81 204.026L153.89 200.046L152.52 204.006L152.4 204.346V284.166H80.29L151.51 204.456L151.69 204.256V204.266Z"/>
</mask>
<path d="M77.2 284.396V286.326H154.56V204.706L165.39 173.376L149.9 203.026L77.2 284.396ZM151.69 204.266L151.81 204.026L153.89 200.046L152.52 204.006L152.4 204.346V284.166H80.29L151.51 204.456L151.69 204.256V204.266Z" fill="#2AAF65"/>
<path d="M77.2 284.396L-668.517 -381.867L-922.8 -97.2599V284.396H77.2ZM77.2 286.326H-922.8V1286.33H77.2V286.326ZM154.56 286.326V1286.33H1154.56V286.326H154.56ZM154.56 204.706L-790.568 -121.995L-845.44 36.7473V204.706H154.56ZM165.39 173.376L1110.52 500.077L-720.947 -289.665L165.39 173.376ZM149.9 203.026L895.617 869.289L978.579 776.433L1036.24 666.067L149.9 203.026ZM151.69 204.266H-848.31L1045.75 652.208L151.69 204.266ZM151.81 204.026L-734.471 -259.121L-738.427 -251.551L-742.253 -243.915L151.81 204.026ZM153.89 200.046L1098.94 526.969L-732.391 -263.101L153.89 200.046ZM152.52 204.006L1095.36 537.252L1096.48 534.094L1097.57 530.929L152.52 204.006ZM152.4 204.346L-790.44 -128.899L-847.6 32.8214V204.346H152.4ZM152.4 284.166V1284.17H1152.4V284.166H152.4ZM80.29 284.166L-665.414 -382.112L-2154.21 1284.17L80.29 1284.17V284.166ZM151.51 204.456L-591.423 -464.91L-592.811 -463.369L-594.194 -461.822L151.51 204.456ZM151.69 204.256H1151.69V-2399.6L-591.243 -465.11L151.69 204.256ZM-922.8 284.396V286.326H1077.2V284.396H-922.8ZM77.2 1286.33H154.56V-713.674H77.2V1286.33ZM1154.56 286.326V204.706H-845.44V286.326H1154.56ZM1099.69 531.407L1110.52 500.077L-779.738 -153.325L-790.568 -121.995L1099.69 531.407ZM-720.947 -289.665L-736.437 -260.015L1036.24 666.067L1051.73 636.417L-720.947 -289.665ZM-595.817 -463.237L-668.517 -381.867L822.917 950.659L895.617 869.289L-595.817 -463.237ZM1045.75 652.208L1045.87 651.968L-742.253 -243.915L-742.373 -243.676L1045.75 652.208ZM1038.09 667.174L1040.17 663.194L-732.391 -263.101L-734.471 -259.121L1038.09 667.174ZM-791.161 -126.876L-792.531 -122.916L1097.57 530.929L1098.94 526.969L-791.161 -126.876ZM-790.32 -129.239L-790.44 -128.899L1095.24 537.591L1095.36 537.252L-790.32 -129.239ZM-847.6 204.346V284.166H1152.4V204.346H-847.6ZM152.4 -715.834H80.29V1284.17H152.4V-715.834ZM825.994 950.444L897.214 870.734L-594.194 -461.822L-665.414 -382.112L825.994 950.444ZM894.443 873.822L894.623 873.622L-591.243 -465.11L-591.423 -464.91L894.443 873.822ZM-848.31 204.256V204.266H1151.69V204.256H-848.31Z" fill="#2AAF65" mask="url(#path-3-inside-2_144_8)"/>
<path d="M369.982 343.63L369.98 343.626L369.982 343.63Z" fill="#2AAF65" stroke="#2AAF65" stroke-width="1000"/>
<mask id="path-6-inside-3_144_8" fill="white">
<path d="M248.23 343.916V346.076L313.71 345.916V343.766L248.23 343.916Z"/>
</mask>
<path d="M248.23 343.916V346.076L313.71 345.916V343.766L248.23 343.916Z" fill="#2AAF65"/>
<path d="M248.23 343.916L245.941 -656.081L-751.77 -653.797V343.916H248.23ZM248.23 346.076H-751.77V1348.53L250.676 1346.07L248.23 346.076ZM313.71 345.916L316.156 1345.91L1313.71 1343.47V345.916H313.71ZM313.71 343.766H1313.71V-658.526L311.421 -656.231L313.71 343.766ZM-751.77 343.916V346.076H1248.23V343.916H-751.77ZM250.676 1346.07L316.156 1345.91L311.264 -654.081L245.784 -653.921L250.676 1346.07ZM1313.71 345.916V343.766H-686.29V345.916H1313.71ZM311.421 -656.231L245.941 -656.081L250.519 1343.91L315.999 1343.76L311.421 -656.231Z" fill="#2AAF65" mask="url(#path-6-inside-3_144_8)"/>
<mask id="path-8-inside-4_144_8" fill="white">
<path d="M313.71 283.446H248.23V285.606H313.71V283.446Z"/>
</mask>
<path d="M313.71 283.446H248.23V285.606H313.71V283.446Z" fill="#2AAF65"/>
<path d="M248.23 283.446V-716.554H-751.77V283.446H248.23ZM313.71 283.446H1313.71V-716.554H313.71V283.446ZM313.71 285.606V1285.61H1313.71V285.606H313.71ZM248.23 285.606H-751.77V1285.61H248.23V285.606ZM248.23 1283.45H313.71V-716.554H248.23V1283.45ZM-686.29 283.446V285.606H1313.71V283.446H-686.29ZM313.71 -714.394H248.23V1285.61H313.71V-714.394ZM1248.23 285.606V283.446H-751.77V285.606H1248.23Z" fill="#2AAF65" mask="url(#path-8-inside-4_144_8)"/>
<path d="M250.718 30.3362C251.618 22.6962 251.948 14.9765 251.718 7.1765C251.648 4.7565 251.508 2.41648 251.298 0.156477C251.278 -0.0435234 251.238 -0.0535429 251.168 0.136457C250.828 1.05646 250.408 1.9662 249.888 2.8762C245.718 10.2662 238.698 15.8463 230.848 18.9363C228.548 19.8763 226.708 20.5861 225.328 21.0661C216.528 24.1461 207.578 27.1665 199.158 30.9065C190.888 34.5965 182.948 39.1962 175.988 44.8962C173.278 47.1162 170.848 49.4565 168.698 51.9265C163.818 57.5365 160.548 63.9563 158.878 71.2063L158.338 74.2366C157.698 79.0366 157.858 83.8064 158.798 88.5364C159.238 90.7364 159.878 92.8264 160.718 94.8064C161.598 96.8764 162.998 98.5163 164.908 99.7263C166.318 100.566 167.828 101.146 169.428 101.456C169.458 101.456 169.488 101.436 169.488 101.396C169.288 96.4462 169.638 91.5265 170.538 86.6365C170.748 85.4865 171.038 84.3666 171.388 83.2766C172.988 78.3566 175.238 73.7962 178.128 69.5862C183.328 62.0162 190.258 55.6762 197.998 50.6462C199.538 49.6462 201.068 48.6766 202.598 47.7566C205.948 45.8866 208.688 44.4563 210.818 43.4563C215.168 41.4063 218.698 39.5962 222.228 37.3762C227.758 33.8962 233.078 30.1462 238.198 26.1462C238.208 26.1462 238.228 26.1462 238.238 26.1462C238.238 26.1462 238.248 26.1763 238.238 26.1863C233.488 30.9263 228.478 35.3766 223.198 39.5266C220.538 41.6266 217.728 43.5163 214.818 45.2663C210.758 47.7063 206.728 50.2066 202.718 52.7566C197.548 56.0166 193.098 59.7265 189.358 63.8865C187.088 66.4065 185.028 69.0263 183.158 71.7663C182.268 73.0763 181.318 74.3766 180.548 75.7366C177.418 81.3066 176.168 87.6263 176.008 93.9963C175.878 99.1363 176.318 104.326 177.308 109.566C177.318 109.626 177.348 109.667 177.388 109.697C178.828 110.737 180.428 111.466 182.208 111.876L183.808 112.156C186.478 112.426 189.148 112.346 191.798 111.926C192.638 111.796 193.418 111.596 194.138 111.346C200.138 109.206 205.778 106.437 211.048 103.047C211.098 103.017 211.108 102.966 211.088 102.916L205.628 92.2663C205.588 92.1763 205.608 92.1565 205.698 92.1965L218.538 97.4363C218.598 97.4663 218.658 97.4565 218.708 97.4065C223.968 92.9565 228.578 87.9066 232.528 82.2366C232.548 82.2066 232.538 82.1665 232.508 82.1565L220.298 75.9866C220.138 75.9066 220.148 75.8564 220.328 75.8464L225.908 75.4065L237.278 74.5066C237.278 74.5066 237.358 74.4763 237.378 74.4363C241.558 66.8863 244.718 58.7461 246.938 50.3161C246.948 50.2761 246.938 50.2566 246.888 50.2566L232.108 50.2165C231.968 50.2165 231.968 50.1865 232.088 50.1365L248.618 42.9265C248.668 42.9065 248.698 42.8661 248.708 42.8161L249.038 41.2966L249.878 36.5466C250.228 34.1266 250.498 32.0564 250.698 30.3264L250.718 30.3362Z" fill="url(#paint0_linear_144_8)"/>
<defs>
<linearGradient id="paint0_linear_144_8" x1="145.618" y1="77.0465" x2="264.628" y2="44.0966" gradientUnits="userSpaceOnUse">
<stop stop-color="#029652"/>
<stop offset="0.63" stop-color="#27AB4C"/>
<stop offset="1" stop-color="#39B54A"/>
</linearGradient>
</defs>
</svg>
